# Tiled2Unity generated file. Do not modify by hand.
# Wavefront file for 'base_mesh_0002.obj'

# Vertices (Count = 768)
v -24 -1 0
v -25 -1 0
v -25 0 0
v -24 0 0
v -23 -1 0
v -24 -1 0
v -24 0 0
v -23 0 0
v -22 -1 0
v -23 -1 0
v -23 0 0
v -22 0 0
v -21 -1 0
v -22 -1 0
v -22 0 0
v -21 0 0
v -20 -1 0
v -21 -1 0
v -21 0 0
v -20 0 0
v -19 -1 0
v -20 -1 0
v -20 0 0
v -19 0 0
v -18 -1 0
v -19 -1 0
v -19 0 0
v -18 0 0
v -17 -1 0
v -18 -1 0
v -18 0 0
v -17 0 0
v -16 -1 0
v -17 -1 0
v -17 0 0
v -16 0 0
v -15 -1 0
v -16 -1 0
v -16 0 0
v -15 0 0
v -12 -1 0
v -13 -1 0
v -13 0 0
v -12 0 0
v -11 -1 0
v -12 -1 0
v -12 0 0
v -11 0 0
v -10 -1 0
v -11 -1 0
v -11 0 0
v -10 0 0
v -9 -1 0
v -10 -1 0
v -10 0 0
v -9 0 0
v -8 -1 0
v -9 -1 0
v -9 0 0
v -8 0 0
v -7 -1 0
v -8 -1 0
v -8 0 0
v -7 0 0
v -6 -1 0
v -7 -1 0
v -7 0 0
v -6 0 0
v -5 -1 0
v -6 -1 0
v -6 0 0
v -5 0 0
v -4 -1 0
v -5 -1 0
v -5 0 0
v -4 0 0
v -3 -1 0
v -4 -1 0
v -4 0 0
v -3 0 0
v -2 -1 0
v -3 -1 0
v -3 0 0
v -2 0 0
v -1 -1 0
v -2 -1 0
v -2 0 0
v -1 0 0
v 0 -1 0
v -1 -1 0
v -1 0 0
v 0 0 0
v -24 -2 0
v -25 -2 0
v -25 -1 0
v -24 -1 0
v 0 -2 0
v -1 -2 0
v -1 -1 0
v 0 -1 0
v -24 -3 0
v -25 -3 0
v -25 -2 0
v -24 -2 0
v -21 -3 0
v -22 -3 0
v -22 -2 0
v -21 -2 0
v -20 -3 0
v -21 -3 0
v -21 -2 0
v -20 -2 0
v -19 -3 0
v -20 -3 0
v -20 -2 0
v -19 -2 0
v -18 -3 0
v -19 -3 0
v -19 -2 0
v -18 -2 0
v 0 -3 0
v -1 -3 0
v -1 -2 0
v 0 -2 0
v -24 -4 0
v -25 -4 0
v -25 -3 0
v -24 -3 0
v -21 -4 0
v -22 -4 0
v -22 -3 0
v -21 -3 0
v -20 -4 0
v -21 -4 0
v -21 -3 0
v -20 -3 0
v -19 -4 0
v -20 -4 0
v -20 -3 0
v -19 -3 0
v -18 -4 0
v -19 -4 0
v -19 -3 0
v -18 -3 0
v 0 -4 0
v -1 -4 0
v -1 -3 0
v 0 -3 0
v -24 -5 0
v -25 -5 0
v -25 -4 0
v -24 -4 0
v 0 -5 0
v -1 -5 0
v -1 -4 0
v 0 -4 0
v -24 -6 0
v -25 -6 0
v -25 -5 0
v -24 -5 0
v 0 -6 0
v -1 -6 0
v -1 -5 0
v 0 -5 0
v -24 -7 0
v -25 -7 0
v -25 -6 0
v -24 -6 0
v 0 -7 0
v -1 -7 0
v -1 -6 0
v 0 -6 0
v -24 -8 0
v -25 -8 0
v -25 -7 0
v -24 -7 0
v -10 -8 0
v -11 -8 0
v -11 -7 0
v -10 -7 0
v -9 -8 0
v -10 -8 0
v -10 -7 0
v -9 -7 0
v -8 -8 0
v -9 -8 0
v -9 -7 0
v -8 -7 0
v -7 -8 0
v -8 -8 0
v -8 -7 0
v -7 -7 0
v -6 -8 0
v -7 -8 0
v -7 -7 0
v -6 -7 0
v -5 -8 0
v -6 -8 0
v -6 -7 0
v -5 -7 0
v -4 -8 0
v -5 -8 0
v -5 -7 0
v -4 -7 0
v 0 -8 0
v -1 -8 0
v -1 -7 0
v 0 -7 0
v -24 -9 0
v -25 -9 0
v -25 -8 0
v -24 -8 0
v -13 -9 0
v -14 -9 0
v -14 -8 0
v -13 -8 0
v -10 -9 0
v -11 -9 0
v -11 -8 0
v -10 -8 0
v -9 -9 0
v -10 -9 0
v -10 -8 0
v -9 -8 0
v -8 -9 0
v -9 -9 0
v -9 -8 0
v -8 -8 0
v -7 -9 0
v -8 -9 0
v -8 -8 0
v -7 -8 0
v -6 -9 0
v -7 -9 0
v -7 -8 0
v -6 -8 0
v -5 -9 0
v -6 -9 0
v -6 -8 0
v -5 -8 0
v -4 -9 0
v -5 -9 0
v -5 -8 0
v -4 -8 0
v 0 -9 0
v -1 -9 0
v -1 -8 0
v 0 -8 0
v -24 -10 0
v -25 -10 0
v -25 -9 0
v -24 -9 0
v -13 -10 0
v -14 -10 0
v -14 -9 0
v -13 -9 0
v -10 -10 0
v -11 -10 0
v -11 -9 0
v -10 -9 0
v -9 -10 0
v -10 -10 0
v -10 -9 0
v -9 -9 0
v -8 -10 0
v -9 -10 0
v -9 -9 0
v -8 -9 0
v -7 -10 0
v -8 -10 0
v -8 -9 0
v -7 -9 0
v -6 -10 0
v -7 -10 0
v -7 -9 0
v -6 -9 0
v -5 -10 0
v -6 -10 0
v -6 -9 0
v -5 -9 0
v -4 -10 0
v -5 -10 0
v -5 -9 0
v -4 -9 0
v 0 -10 0
v -1 -10 0
v -1 -9 0
v 0 -9 0
v -24 -11 0
v -25 -11 0
v -25 -10 0
v -24 -10 0
v -16 -11 0
v -17 -11 0
v -17 -10 0
v -16 -10 0
v -15 -11 0
v -16 -11 0
v -16 -10 0
v -15 -10 0
v -13 -11 0
v -14 -11 0
v -14 -10 0
v -13 -10 0
v -10 -11 0
v -11 -11 0
v -11 -10 0
v -10 -10 0
v -9 -11 0
v -10 -11 0
v -10 -10 0
v -9 -10 0
v -8 -11 0
v -9 -11 0
v -9 -10 0
v -8 -10 0
v -7 -11 0
v -8 -11 0
v -8 -10 0
v -7 -10 0
v -6 -11 0
v -7 -11 0
v -7 -10 0
v -6 -10 0
v -5 -11 0
v -6 -11 0
v -6 -10 0
v -5 -10 0
v -4 -11 0
v -5 -11 0
v -5 -10 0
v -4 -10 0
v 0 -11 0
v -1 -11 0
v -1 -10 0
v 0 -10 0
v -24 -12 0
v -25 -12 0
v -25 -11 0
v -24 -11 0
v -16 -12 0
v -17 -12 0
v -17 -11 0
v -16 -11 0
v -15 -12 0
v -16 -12 0
v -16 -11 0
v -15 -11 0
v -13 -12 0
v -14 -12 0
v -14 -11 0
v -13 -11 0
v -10 -12 0
v -11 -12 0
v -11 -11 0
v -10 -11 0
v -9 -12 0
v -10 -12 0
v -10 -11 0
v -9 -11 0
v -8 -12 0
v -9 -12 0
v -9 -11 0
v -8 -11 0
v -7 -12 0
v -8 -12 0
v -8 -11 0
v -7 -11 0
v -6 -12 0
v -7 -12 0
v -7 -11 0
v -6 -11 0
v -5 -12 0
v -6 -12 0
v -6 -11 0
v -5 -11 0
v -4 -12 0
v -5 -12 0
v -5 -11 0
v -4 -11 0
v 0 -12 0
v -1 -12 0
v -1 -11 0
v 0 -11 0
v -24 -13 0
v -25 -13 0
v -25 -12 0
v -24 -12 0
v -20 -13 0
v -21 -13 0
v -21 -12 0
v -20 -12 0
v -19 -13 0
v -20 -13 0
v -20 -12 0
v -19 -12 0
v -18 -13 0
v -19 -13 0
v -19 -12 0
v -18 -12 0
v -13 -13 0
v -14 -13 0
v -14 -12 0
v -13 -12 0
v 0 -13 0
v -1 -13 0
v -1 -12 0
v 0 -12 0
v -24 -14 0
v -25 -14 0
v -25 -13 0
v -24 -13 0
v -23 -14 0
v -24 -14 0
v -24 -13 0
v -23 -13 0
v -22 -14 0
v -23 -14 0
v -23 -13 0
v -22 -13 0
v -20 -14 0
v -21 -14 0
v -21 -13 0
v -20 -13 0
v -19 -14 0
v -20 -14 0
v -20 -13 0
v -19 -13 0
v -18 -14 0
v -19 -14 0
v -19 -13 0
v -18 -13 0
v -16 -14 0
v -17 -14 0
v -17 -13 0
v -16 -13 0
v -15 -14 0
v -16 -14 0
v -16 -13 0
v -15 -13 0
v -13 -14 0
v -14 -14 0
v -14 -13 0
v -13 -13 0
v 0 -14 0
v -1 -14 0
v -1 -13 0
v 0 -13 0
v -24 -15 0
v -25 -15 0
v -25 -14 0
v -24 -14 0
v -23 -15 0
v -24 -15 0
v -24 -14 0
v -23 -14 0
v -22 -15 0
v -23 -15 0
v -23 -14 0
v -22 -14 0
v -20 -15 0
v -21 -15 0
v -21 -14 0
v -20 -14 0
v -19 -15 0
v -20 -15 0
v -20 -14 0
v -19 -14 0
v -18 -15 0
v -19 -15 0
v -19 -14 0
v -18 -14 0
v -16 -15 0
v -17 -15 0
v -17 -14 0
v -16 -14 0
v -15 -15 0
v -16 -15 0
v -16 -14 0
v -15 -14 0
v -13 -15 0
v -14 -15 0
v -14 -14 0
v -13 -14 0
v 0 -15 0
v -1 -15 0
v -1 -14 0
v 0 -14 0
v -24 -16 0
v -25 -16 0
v -25 -15 0
v -24 -15 0
v -23 -16 0
v -24 -16 0
v -24 -15 0
v -23 -15 0
v -22 -16 0
v -23 -16 0
v -23 -15 0
v -22 -15 0
v -21 -16 0
v -22 -16 0
v -22 -15 0
v -21 -15 0
v -20 -16 0
v -21 -16 0
v -21 -15 0
v -20 -15 0
v -19 -16 0
v -20 -16 0
v -20 -15 0
v -19 -15 0
v -18 -16 0
v -19 -16 0
v -19 -15 0
v -18 -15 0
v -17 -16 0
v -18 -16 0
v -18 -15 0
v -17 -15 0
v -16 -16 0
v -17 -16 0
v -17 -15 0
v -16 -15 0
v -15 -16 0
v -16 -16 0
v -16 -15 0
v -15 -15 0
v -14 -16 0
v -15 -16 0
v -15 -15 0
v -14 -15 0
v -13 -16 0
v -14 -16 0
v -14 -15 0
v -13 -15 0
v 0 -16 0
v -1 -16 0
v -1 -15 0
v 0 -15 0
v 0 -18 0
v -1 -18 0
v -1 -17 0
v 0 -17 0
v -24 -19 0
v -25 -19 0
v -25 -18 0
v -24 -18 0
v -23 -19 0
v -24 -19 0
v -24 -18 0
v -23 -18 0
v -22 -19 0
v -23 -19 0
v -23 -18 0
v -22 -18 0
v -21 -19 0
v -22 -19 0
v -22 -18 0
v -21 -18 0
v -20 -19 0
v -21 -19 0
v -21 -18 0
v -20 -18 0
v -19 -19 0
v -20 -19 0
v -20 -18 0
v -19 -18 0
v -18 -19 0
v -19 -19 0
v -19 -18 0
v -18 -18 0
v -17 -19 0
v -18 -19 0
v -18 -18 0
v -17 -18 0
v -16 -19 0
v -17 -19 0
v -17 -18 0
v -16 -18 0
v -15 -19 0
v -16 -19 0
v -16 -18 0
v -15 -18 0
v -14 -19 0
v -15 -19 0
v -15 -18 0
v -14 -18 0
v 0 -19 0
v -1 -19 0
v -1 -18 0
v 0 -18 0
v -24 -20 0
v -25 -20 0
v -25 -19 0
v -24 -19 0
v -23 -20 0
v -24 -20 0
v -24 -19 0
v -23 -19 0
v -22 -20 0
v -23 -20 0
v -23 -19 0
v -22 -19 0
v -3 -20 0
v -4 -20 0
v -4 -19 0
v -3 -19 0
v -2 -20 0
v -3 -20 0
v -3 -19 0
v -2 -19 0
v 0 -20 0
v -1 -20 0
v -1 -19 0
v 0 -19 0
v -24 -21 0
v -25 -21 0
v -25 -20 0
v -24 -20 0
v -23 -21 0
v -24 -21 0
v -24 -20 0
v -23 -20 0
v -22 -21 0
v -23 -21 0
v -23 -20 0
v -22 -20 0
v -3 -21 0
v -4 -21 0
v -4 -20 0
v -3 -20 0
v -2 -21 0
v -3 -21 0
v -3 -20 0
v -2 -20 0
v 0 -21 0
v -1 -21 0
v -1 -20 0
v 0 -20 0
v -24 -22 0
v -25 -22 0
v -25 -21 0
v -24 -21 0
v 0 -22 0
v -1 -22 0
v -1 -21 0
v 0 -21 0
v -24 -23 0
v -25 -23 0
v -25 -22 0
v -24 -22 0
v 0 -23 0
v -1 -23 0
v -1 -22 0
v 0 -22 0
v -24 -24 0
v -25 -24 0
v -25 -23 0
v -24 -23 0
v -1 -24 0
v -2 -24 0
v -2 -23 0
v -1 -23 0
v 0 -24 0
v -1 -24 0
v -1 -23 0
v 0 -23 0
v -24 -25 0
v -25 -25 0
v -25 -24 0
v -24 -24 0
v -23 -25 0
v -24 -25 0
v -24 -24 0
v -23 -24 0
v -22 -25 0
v -23 -25 0
v -23 -24 0
v -22 -24 0
v -21 -25 0
v -22 -25 0
v -22 -24 0
v -21 -24 0
v -20 -25 0
v -21 -25 0
v -21 -24 0
v -20 -24 0
v -19 -25 0
v -20 -25 0
v -20 -24 0
v -19 -24 0
v -18 -25 0
v -19 -25 0
v -19 -24 0
v -18 -24 0
v -17 -25 0
v -18 -25 0
v -18 -24 0
v -17 -24 0
v -16 -25 0
v -17 -25 0
v -17 -24 0
v -16 -24 0
v -15 -25 0
v -16 -25 0
v -16 -24 0
v -15 -24 0
v -14 -25 0
v -15 -25 0
v -15 -24 0
v -14 -24 0
v -13 -25 0
v -14 -25 0
v -14 -24 0
v -13 -24 0
v -12 -25 0
v -13 -25 0
v -13 -24 0
v -12 -24 0
v -11 -25 0
v -12 -25 0
v -12 -24 0
v -11 -24 0
v -10 -25 0
v -11 -25 0
v -11 -24 0
v -10 -24 0
v -9 -25 0
v -10 -25 0
v -10 -24 0
v -9 -24 0
v -8 -25 0
v -9 -25 0
v -9 -24 0
v -8 -24 0
v -7 -25 0
v -8 -25 0
v -8 -24 0
v -7 -24 0
v -6 -25 0
v -7 -25 0
v -7 -24 0
v -6 -24 0
v -5 -25 0
v -6 -25 0
v -6 -24 0
v -5 -24 0
v -4 -25 0
v -5 -25 0
v -5 -24 0
v -4 -24 0
v -3 -25 0
v -4 -25 0
v -4 -24 0
v -3 -24 0
v -2 -25 0
v -3 -25 0
v -3 -24 0
v -2 -24 0
v -1 -25 0
v -2 -25 0
v -2 -24 0
v -1 -24 0
v 0 -25 0
v -1 -25 0
v -1 -24 0
v 0 -24 0

# Texture cooridinates (Count = 140)
vt 0.075 0.6111111
vt 0.1 0.6111111
vt 0.1 0.6388889
vt 0.075 0.6388889
vt 0.05 0.6111111
vt 0.05 0.6388889
vt 0.025 0.5555556
vt 0.05 0.5555556
vt 0.05 0.5833334
vt 0.025 0.5833334
vt 0.075 0.5555556
vt 0.1 0.5555556
vt 0.1 0.5833334
vt 0.075 0.5833334
vt 0.025 0.6111111
vt 0.025 0.6388889
vt 0.25 0.6666666
vt 0.275 0.6666666
vt 0.275 0.6944444
vt 0.25 0.6944444
vt 0.225 0.6666666
vt 0.225 0.6944444
vt 0.9 0.8333333
vt 0.925 0.8333333
vt 0.925 0.8611111
vt 0.9 0.8611111
vt 0.875 0.8333333
vt 0.875 0.8611111
vt 0.25 0.6388889
vt 0.275 0.6388889
vt 0.225 0.6388889
vt 0.9 0.8055556
vt 0.925 0.8055556
vt 0.875 0.8055556
vt 0.55 0.4166667
vt 0.575 0.4166667
vt 0.575 0.4444444
vt 0.55 0.4444444
vt 0.525 0.4166667
vt 0.525 0.4444444
vt 0.25 0.9722222
vt 0.275 0.9722222
vt 0.275 1
vt 0.25 1
vt 0.225 0.9722222
vt 0.225 1
vt 0.2 0.9722222
vt 0.2 1
vt 0.175 0.9722222
vt 0.175 1
vt 0.15 0.9722222
vt 0.15 1
vt 0.025 0.1388889
vt 0.05 0.1388889
vt 0.05 0.1666667
vt 0.025 0.1666667
vt 0.55 0.3888889
vt 0.575 0.3888889
vt 0.525 0.3888889
vt 0.25 0.9444444
vt 0.275 0.9444444
vt 0.225 0.9444444
vt 0.2 0.9444444
vt 0.175 0.9444444
vt 0.15 0.9444444
vt 0.35 0.8333333
vt 0.375 0.8333333
vt 0.375 0.8611111
vt 0.35 0.8611111
vt 0.325 0.8333333
vt 0.325 0.8611111
vt 0.25 0.9166667
vt 0.275 0.9166667
vt 0.225 0.9166667
vt 0.2 0.9166667
vt 0.175 0.9166667
vt 0.15 0.9166667
vt 0.8 0.8888889
vt 0.825 0.8888889
vt 0.825 0.9166667
vt 0.8 0.9166667
vt 0.775 0.8888889
vt 0.775 0.9166667
vt 0.35 0.8055556
vt 0.375 0.8055556
vt 0.325 0.8055556
vt 0.25 0.8888889
vt 0.275 0.8888889
vt 0.225 0.8888889
vt 0.2 0.8888889
vt 0.175 0.8888889
vt 0.15 0.8888889
vt 0.8 0.8611111
vt 0.825 0.8611111
vt 0.775 0.8611111
vt 0.35 0.7777778
vt 0.375 0.7777778
vt 0.325 0.7777778
vt 0.25 0.8611111
vt 0.275 0.8611111
vt 0.225 0.8611111
vt 0.2 0.8611111
vt 0.175 0.8611111
vt 0.15 0.8611111
vt 0.75 0.7222222
vt 0.775 0.7222222
vt 0.775 0.75
vt 0.75 0.75
vt 0.725 0.7222222
vt 0.725 0.75
vt 0.7 0.7222222
vt 0.7 0.75
vt 0.15 0.5277778
vt 0.175 0.5277778
vt 0.175 0.5555556
vt 0.15 0.5555556
vt 0.125 0.5277778
vt 0.125 0.5555556
vt 0.75 0.6944444
vt 0.775 0.6944444
vt 0.725 0.6944444
vt 0.7 0.6944444
vt 0.15 0.5
vt 0.175 0.5
vt 0.125 0.5
vt 0.75 0.6666666
vt 0.775 0.6666666
vt 0.725 0.6666666
vt 0.7 0.6666666
vt 0.075 0.5
vt 0.1 0.5
vt 0.1 0.5277778
vt 0.075 0.5277778
vt 0 0.4444444
vt 0.025 0.4444444
vt 0.025 0.4722222
vt 0 0.4722222
vt 0.05 0.4722222
vt 0.075 0.4722222
vt 0.05 0.5

# Normal
vn 0 0 -1

# Mesh description
g base_mesh_0002

# Faces
f 1/1/1 2/2/1 3/3/1 4/4/1
f 5/5/1 6/1/1 7/4/1 8/6/1
f 9/5/1 10/1/1 11/4/1 12/6/1
f 13/5/1 14/1/1 15/4/1 16/6/1
f 17/5/1 18/1/1 19/4/1 20/6/1
f 21/5/1 22/1/1 23/4/1 24/6/1
f 25/5/1 26/1/1 27/4/1 28/6/1
f 29/5/1 30/1/1 31/4/1 32/6/1
f 33/5/1 34/1/1 35/4/1 36/6/1
f 37/7/1 38/8/1 39/9/1 40/10/1
f 41/11/1 42/12/1 43/13/1 44/14/1
f 45/8/1 46/11/1 47/14/1 48/9/1
f 49/8/1 50/11/1 51/14/1 52/9/1
f 53/8/1 54/11/1 55/14/1 56/9/1
f 57/8/1 58/11/1 59/14/1 60/9/1
f 61/8/1 62/11/1 63/14/1 64/9/1
f 65/8/1 66/11/1 67/14/1 68/9/1
f 69/8/1 70/11/1 71/14/1 72/9/1
f 73/8/1 74/11/1 75/14/1 76/9/1
f 77/8/1 78/11/1 79/14/1 80/9/1
f 81/8/1 82/11/1 83/14/1 84/9/1
f 85/5/1 86/1/1 87/4/1 88/6/1
f 89/15/1 90/5/1 91/6/1 92/16/1
f 93/14/1 94/13/1 95/2/1 96/1/1
f 97/10/1 98/9/1 99/5/1 100/15/1
f 101/10/1 102/9/1 103/5/1 104/15/1
f 105/17/1 106/18/1 107/19/1 108/20/1
f 109/21/1 110/17/1 111/20/1 112/22/1
f 113/23/1 114/24/1 115/25/1 116/26/1
f 117/27/1 118/23/1 119/26/1 120/28/1
f 121/10/1 122/9/1 123/5/1 124/15/1
f 125/10/1 126/9/1 127/5/1 128/15/1
f 129/29/1 130/30/1 131/18/1 132/17/1
f 133/31/1 134/29/1 135/17/1 136/21/1
f 137/32/1 138/33/1 139/24/1 140/23/1
f 141/34/1 142/32/1 143/23/1 144/27/1
f 145/10/1 146/9/1 147/5/1 148/15/1
f 149/10/1 150/9/1 151/5/1 152/15/1
f 153/10/1 154/9/1 155/5/1 156/15/1
f 157/10/1 158/9/1 159/5/1 160/15/1
f 161/10/1 162/9/1 163/5/1 164/15/1
f 165/10/1 166/9/1 167/5/1 168/15/1
f 169/10/1 170/9/1 171/5/1 172/15/1
f 173/10/1 174/9/1 175/5/1 176/15/1
f 177/35/1 178/36/1 179/37/1 180/38/1
f 181/39/1 182/35/1 183/38/1 184/40/1
f 185/41/1 186/42/1 187/43/1 188/44/1
f 189/45/1 190/41/1 191/44/1 192/46/1
f 193/47/1 194/45/1 195/46/1 196/48/1
f 197/49/1 198/47/1 199/48/1 200/50/1
f 201/51/1 202/49/1 203/50/1 204/52/1
f 205/10/1 206/9/1 207/5/1 208/15/1
f 209/10/1 210/9/1 211/5/1 212/15/1
f 213/53/1 214/54/1 215/55/1 216/56/1
f 217/57/1 218/58/1 219/36/1 220/35/1
f 221/59/1 222/57/1 223/35/1 224/39/1
f 225/60/1 226/61/1 227/42/1 228/41/1
f 229/62/1 230/60/1 231/41/1 232/45/1
f 233/63/1 234/62/1 235/45/1 236/47/1
f 237/64/1 238/63/1 239/47/1 240/49/1
f 241/65/1 242/64/1 243/49/1 244/51/1
f 245/10/1 246/9/1 247/5/1 248/15/1
f 249/10/1 250/9/1 251/5/1 252/15/1
f 253/53/1 254/54/1 255/55/1 256/56/1
f 257/66/1 258/67/1 259/68/1 260/69/1
f 261/70/1 262/66/1 263/69/1 264/71/1
f 265/72/1 266/73/1 267/61/1 268/60/1
f 269/74/1 270/72/1 271/60/1 272/62/1
f 273/75/1 274/74/1 275/62/1 276/63/1
f 277/76/1 278/75/1 279/63/1 280/64/1
f 281/77/1 282/76/1 283/64/1 284/65/1
f 285/10/1 286/9/1 287/5/1 288/15/1
f 289/10/1 290/9/1 291/5/1 292/15/1
f 293/78/1 294/79/1 295/80/1 296/81/1
f 297/82/1 298/78/1 299/81/1 300/83/1
f 301/53/1 302/54/1 303/55/1 304/56/1
f 305/84/1 306/85/1 307/67/1 308/66/1
f 309/86/1 310/84/1 311/66/1 312/70/1
f 313/87/1 314/88/1 315/73/1 316/72/1
f 317/89/1 318/87/1 319/72/1 320/74/1
f 321/90/1 322/89/1 323/74/1 324/75/1
f 325/91/1 326/90/1 327/75/1 328/76/1
f 329/92/1 330/91/1 331/76/1 332/77/1
f 333/10/1 334/9/1 335/5/1 336/15/1
f 337/10/1 338/9/1 339/5/1 340/15/1
f 341/93/1 342/94/1 343/79/1 344/78/1
f 345/95/1 346/93/1 347/78/1 348/82/1
f 349/53/1 350/54/1 351/55/1 352/56/1
f 353/96/1 354/97/1 355/85/1 356/84/1
f 357/98/1 358/96/1 359/84/1 360/86/1
f 361/99/1 362/100/1 363/88/1 364/87/1
f 365/101/1 366/99/1 367/87/1 368/89/1
f 369/102/1 370/101/1 371/89/1 372/90/1
f 373/103/1 374/102/1 375/90/1 376/91/1
f 377/104/1 378/103/1 379/91/1 380/92/1
f 381/10/1 382/9/1 383/5/1 384/15/1
f 385/10/1 386/9/1 387/5/1 388/15/1
f 389/105/1 390/106/1 391/107/1 392/108/1
f 393/109/1 394/105/1 395/108/1 396/110/1
f 397/111/1 398/109/1 399/110/1 400/112/1
f 401/53/1 402/54/1 403/55/1 404/56/1
f 405/10/1 406/9/1 407/5/1 408/15/1
f 409/10/1 410/9/1 411/5/1 412/15/1
f 413/113/1 414/114/1 415/115/1 416/116/1
f 417/117/1 418/113/1 419/116/1 420/118/1
f 421/119/1 422/120/1 423/106/1 424/105/1
f 425/121/1 426/119/1 427/105/1 428/109/1
f 429/122/1 430/121/1 431/109/1 432/111/1
f 433/113/1 434/114/1 435/115/1 436/116/1
f 437/117/1 438/113/1 439/116/1 440/118/1
f 441/53/1 442/54/1 443/55/1 444/56/1
f 445/10/1 446/9/1 447/5/1 448/15/1
f 449/10/1 450/9/1 451/5/1 452/15/1
f 453/123/1 454/124/1 455/114/1 456/113/1
f 457/125/1 458/123/1 459/113/1 460/117/1
f 461/126/1 462/127/1 463/120/1 464/119/1
f 465/128/1 466/126/1 467/119/1 468/121/1
f 469/129/1 470/128/1 471/121/1 472/122/1
f 473/123/1 474/124/1 475/114/1 476/113/1
f 477/125/1 478/123/1 479/113/1 480/117/1
f 481/53/1 482/54/1 483/55/1 484/56/1
f 485/10/1 486/9/1 487/5/1 488/15/1
f 489/7/1 490/8/1 491/9/1 492/10/1
f 493/130/1 494/131/1 495/132/1 496/133/1
f 497/131/1 498/125/1 499/117/1 500/132/1
f 501/131/1 502/125/1 503/117/1 504/132/1
f 505/131/1 506/125/1 507/117/1 508/132/1
f 509/131/1 510/125/1 511/117/1 512/132/1
f 513/131/1 514/125/1 515/117/1 516/132/1
f 517/131/1 518/125/1 519/117/1 520/132/1
f 521/131/1 522/125/1 523/117/1 524/132/1
f 525/131/1 526/125/1 527/117/1 528/132/1
f 529/134/1 530/135/1 531/136/1 532/137/1
f 533/53/1 534/54/1 535/55/1 536/56/1
f 537/11/1 538/12/1 539/13/1 540/14/1
f 541/1/1 542/2/1 543/3/1 544/4/1
f 545/15/1 546/5/1 547/6/1 548/16/1
f 549/130/1 550/131/1 551/132/1 552/133/1
f 553/131/1 554/125/1 555/117/1 556/132/1
f 557/131/1 558/125/1 559/117/1 560/132/1
f 561/131/1 562/125/1 563/117/1 564/132/1
f 565/131/1 566/125/1 567/117/1 568/132/1
f 569/131/1 570/125/1 571/117/1 572/132/1
f 573/131/1 574/125/1 575/117/1 576/132/1
f 577/131/1 578/125/1 579/117/1 580/132/1
f 581/131/1 582/125/1 583/117/1 584/132/1
f 585/138/1 586/139/1 587/130/1 588/140/1
f 589/10/1 590/9/1 591/5/1 592/15/1
f 593/14/1 594/13/1 595/2/1 596/1/1
f 597/78/1 598/79/1 599/80/1 600/81/1
f 601/82/1 602/78/1 603/81/1 604/83/1
f 605/78/1 606/79/1 607/80/1 608/81/1
f 609/82/1 610/78/1 611/81/1 612/83/1
f 613/10/1 614/9/1 615/5/1 616/15/1
f 617/14/1 618/13/1 619/2/1 620/1/1
f 621/93/1 622/94/1 623/79/1 624/78/1
f 625/95/1 626/93/1 627/78/1 628/82/1
f 629/93/1 630/94/1 631/79/1 632/78/1
f 633/95/1 634/93/1 635/78/1 636/82/1
f 637/10/1 638/9/1 639/5/1 640/15/1
f 641/14/1 642/13/1 643/2/1 644/1/1
f 645/10/1 646/9/1 647/5/1 648/15/1
f 649/14/1 650/13/1 651/2/1 652/1/1
f 653/10/1 654/9/1 655/5/1 656/15/1
f 657/14/1 658/13/1 659/2/1 660/1/1
f 661/9/1 662/14/1 663/1/1 664/5/1
f 665/10/1 666/9/1 667/5/1 668/15/1
f 669/11/1 670/12/1 671/13/1 672/14/1
f 673/8/1 674/11/1 675/14/1 676/9/1
f 677/8/1 678/11/1 679/14/1 680/9/1
f 681/8/1 682/11/1 683/14/1 684/9/1
f 685/8/1 686/11/1 687/14/1 688/9/1
f 689/8/1 690/11/1 691/14/1 692/9/1
f 693/8/1 694/11/1 695/14/1 696/9/1
f 697/8/1 698/11/1 699/14/1 700/9/1
f 701/8/1 702/11/1 703/14/1 704/9/1
f 705/8/1 706/11/1 707/14/1 708/9/1
f 709/8/1 710/11/1 711/14/1 712/9/1
f 713/8/1 714/11/1 715/14/1 716/9/1
f 717/8/1 718/11/1 719/14/1 720/9/1
f 721/8/1 722/11/1 723/14/1 724/9/1
f 725/8/1 726/11/1 727/14/1 728/9/1
f 729/8/1 730/11/1 731/14/1 732/9/1
f 733/8/1 734/11/1 735/14/1 736/9/1
f 737/8/1 738/11/1 739/14/1 740/9/1
f 741/8/1 742/11/1 743/14/1 744/9/1
f 745/8/1 746/11/1 747/14/1 748/9/1
f 749/8/1 750/11/1 751/14/1 752/9/1
f 753/8/1 754/11/1 755/14/1 756/9/1
f 757/8/1 758/11/1 759/14/1 760/9/1
f 761/8/1 762/11/1 763/14/1 764/9/1
f 765/7/1 766/8/1 767/9/1 768/10/1

